<?xml version="1.0" encoding="UTF-8"?>
<!DOCTYPE svg PUBLIC "-//W3C//DTD SVG 1.1//EN" "http://www.w3.org/Graphics/SVG/1.1/DTD/svg11.dtd">
<svg xmlns="http://www.w3.org/2000/svg" version="1.1" width="1604px" height="610px" style="shape-rendering:geometricPrecision; text-rendering:geometricPrecision; image-rendering:optimizeQuality; fill-rule:evenodd; clip-rule:evenodd" xmlns:xlink="http://www.w3.org/1999/xlink">
<g><path style="opacity:0.983" fill="#80de7b" d="M 1375.5,-0.5 C 1378.17,-0.5 1380.83,-0.5 1383.5,-0.5C 1384.12,0.626561 1384.96,1.62656 1386,2.5C 1386.17,7.53288 1386.67,12.5329 1387.5,17.5C 1478.62,30.1378 1543.46,78.1378 1582,161.5C 1593.42,188.192 1600.59,215.858 1603.5,244.5C 1603.5,251.833 1603.5,259.167 1603.5,266.5C 1602.03,268.134 1600.36,269.634 1598.5,271C 1575.5,271.667 1552.5,271.667 1529.5,271C 1527.67,269.833 1526.17,268.333 1525,266.5C 1522.93,202.823 1495.76,153.323 1443.5,118C 1426.04,107.903 1407.38,101.07 1387.5,97.5C 1386.67,102.467 1386.17,107.467 1386,112.5C 1383.03,116.112 1379.2,117.279 1374.5,116C 1353.7,98.2049 1333.2,80.0382 1313,61.5C 1311.56,56.788 1312.72,52.9547 1316.5,50C 1336.24,33.1488 1355.9,16.3154 1375.5,-0.5 Z"/></g>
<g><path style="opacity:0.986" fill="#959695" d="M 1284.5,156.5 C 1303.17,156.333 1321.84,156.5 1340.5,157C 1342.33,158.167 1343.83,159.667 1345,161.5C 1345.83,264.168 1345.67,366.835 1344.5,469.5C 1343.31,470.853 1341.98,472.02 1340.5,473C 1321.83,473.667 1303.17,473.667 1284.5,473C 1283.02,472.02 1281.69,470.853 1280.5,469.5C 1279.67,461.521 1279.17,453.521 1279,445.5C 1265.56,459.973 1249.06,468.806 1229.5,472C 1196.01,476.605 1166.34,468.272 1140.5,447C 1124.47,431.939 1114.97,413.439 1112,391.5C 1107.44,364.65 1109.44,338.317 1118,312.5C 1136.29,270.582 1168.46,248.915 1214.5,247.5C 1233.42,247.813 1251.08,252.646 1267.5,262C 1272,265.167 1275.83,269 1279,273.5C 1279.33,236.167 1279.67,198.833 1280,161.5C 1281.37,159.638 1282.87,157.972 1284.5,156.5 Z M 1219.5,304.5 C 1257.9,303.34 1278.24,321.84 1280.5,360C 1281.12,377.473 1275.46,392.473 1263.5,405C 1248.15,416.137 1231.15,419.471 1212.5,415C 1191.34,408.213 1179.51,393.713 1177,371.5C 1174.52,355.238 1177.19,339.904 1185,325.5C 1193.65,313.665 1205.15,306.665 1219.5,304.5 Z"/></g>
<g><path style="opacity:1" fill="#29a323" d="M 1459.5,171.5 C 1459.43,173.027 1460.09,174.027 1461.5,174.5C 1462.34,174.842 1462.67,175.508 1462.5,176.5C 1462.43,178.027 1463.09,179.027 1464.5,179.5C 1472.72,204.319 1465.06,222.486 1441.5,234C 1414.79,241.004 1396.29,231.837 1386,206.5C 1383.49,196.271 1384.65,186.605 1389.5,177.5C 1390.91,177.027 1391.57,176.027 1391.5,174.5C 1399.56,161.819 1411.23,155.485 1426.5,155.5C 1440.05,155.776 1451.05,161.109 1459.5,171.5 Z"/></g>
<g><path style="opacity:0.97" fill="#959695" d="M 546.5,157.5 C 592.902,157.01 632.402,173.01 665,205.5C 667.833,209.667 670.667,213.833 673.5,218C 658.945,231.725 643.945,244.892 628.5,257.5C 597.843,221.229 559.843,210.395 514.5,225C 484.277,240.589 467.444,265.422 464,299.5C 459.758,329.652 466.424,356.985 484,381.5C 510.816,410.322 543.316,419.488 581.5,409C 596.468,404.523 609.135,396.523 619.5,385C 625.589,381.814 631.589,382.148 637.5,386C 647.848,394.168 658.515,401.835 669.5,409C 673.282,414.04 673.448,419.206 670,424.5C 655.73,439.435 639.23,451.269 620.5,460C 579.863,475.666 538.53,477.666 496.5,466C 431.429,443.901 396.929,398.401 393,329.5C 389.247,270.357 410.414,222.523 456.5,186C 483.619,167.224 513.619,157.724 546.5,157.5 Z"/></g>
<g><path style="opacity:0.659" fill="#519e4d" d="M 1459.5,171.5 C 1460.91,171.973 1461.57,172.973 1461.5,174.5C 1460.09,174.027 1459.43,173.027 1459.5,171.5 Z"/></g>
<g><path style="opacity:0.686" fill="#4f9f4a" d="M 1391.5,174.5 C 1391.57,176.027 1390.91,177.027 1389.5,177.5C 1389.43,175.973 1390.09,174.973 1391.5,174.5 Z"/></g>
<g><path style="opacity:0.561" fill="#509e4c" d="M 1462.5,176.5 C 1463.91,176.973 1464.57,177.973 1464.5,179.5C 1463.09,179.027 1462.43,178.027 1462.5,176.5 Z"/></g>
<g><path style="opacity:0.984" fill="#959695" d="M 736.5,246.5 C 747.573,246.952 758.573,247.785 769.5,249C 770.211,250.255 771.044,251.421 772,252.5C 772.333,259.167 772.667,265.833 773,272.5C 788.815,251.675 809.648,243.175 835.5,247C 838.91,249.394 841.077,252.561 842,256.5C 842.615,270.996 843.115,285.496 843.5,300C 843.628,306.603 843.128,313.103 842,319.5C 840.786,321.049 839.286,322.215 837.5,323C 815.439,324.011 796.606,332.177 781,347.5C 774.453,356.013 771.786,365.68 773,376.5C 772.5,408.832 772.333,441.165 772.5,473.5C 750.5,473.5 728.5,473.5 706.5,473.5C 706.333,401.166 706.5,328.833 707,256.5C 707.648,252.861 709.481,250.027 712.5,248C 720.677,247.829 728.677,247.329 736.5,246.5 Z"/></g>
<g><path style="opacity:0.974" fill="#959695" d="M 948.5,246.5 C 978.273,243.463 1006.61,248.63 1033.5,262C 1062.65,282.116 1079.15,309.95 1083,345.5C 1084.24,357.467 1084.74,369.467 1084.5,381.5C 1030.5,381.333 976.499,381.5 922.5,382C 928.877,402.702 942.877,414.369 964.5,417C 982.822,419.535 1000.15,416.535 1016.5,408C 1022.55,402.947 1028.89,398.281 1035.5,394C 1036.64,393.251 1037.64,393.417 1038.5,394.5C 1050.03,407.531 1061.37,420.697 1072.5,434C 1057.97,449.822 1040.31,460.822 1019.5,467C 1011.63,469.301 1003.63,470.967 995.5,472C 963.115,476.122 932.448,470.789 903.5,456C 869.081,433.336 852.414,401.169 853.5,359.5C 853.881,315.893 872.547,282.726 909.5,260C 922.358,254.549 935.358,250.049 948.5,246.5 Z M 957.5,301.5 C 977.178,298.336 993.678,304.003 1007,318.5C 1010.89,323.944 1013.39,329.944 1014.5,336.5C 984.167,336.5 953.833,336.5 923.5,336.5C 927.912,317.94 939.245,306.273 957.5,301.5 Z"/></g>
<g><path style="opacity:0.998" fill="#959695" d="M 1398.5,246.5 C 1417.17,246.333 1435.84,246.5 1454.5,247C 1456.33,248.167 1457.83,249.667 1459,251.5C 1459.67,323.833 1459.67,396.167 1459,468.5C 1457.83,470.333 1456.33,471.833 1454.5,473C 1435.83,473.667 1417.17,473.667 1398.5,473C 1396.67,471.833 1395.17,470.333 1394,468.5C 1393.33,396.167 1393.33,323.833 1394,251.5C 1395.37,249.638 1396.87,247.972 1398.5,246.5 Z"/></g>
<g><path style="opacity:0.974" fill="#959695" d="M 229.5,247.5 C 259.273,244.463 287.607,249.63 314.5,263C 343.655,283.116 360.155,310.95 364,346.5C 365.242,358.467 365.742,370.467 365.5,382.5C 311.499,382.333 257.499,382.5 203.5,383C 209.877,403.702 223.877,415.369 245.5,418C 263.822,420.535 281.155,417.535 297.5,409C 303.552,403.947 309.885,399.281 316.5,395C 317.635,394.251 318.635,394.417 319.5,395.5C 331.034,408.531 342.367,421.697 353.5,435C 338.975,450.822 321.308,461.822 300.5,468C 292.63,470.301 284.63,471.967 276.5,473C 244.115,477.122 213.448,471.789 184.5,457C 150.081,434.336 133.414,402.169 134.5,360.5C 134.881,316.893 153.547,283.726 190.5,261C 203.358,255.549 216.358,251.049 229.5,247.5 Z M 238.5,302.5 C 258.178,299.336 274.678,305.003 288,319.5C 291.891,324.944 294.391,330.944 295.5,337.5C 265.167,337.5 234.833,337.5 204.5,337.5C 208.912,318.94 220.245,307.273 238.5,302.5 Z"/></g>
<g><path style="opacity:0.983" fill="#80de7b" d="M 234.5,609.5 C 231.833,609.5 229.167,609.5 226.5,609.5C 225.878,608.373 225.045,607.373 224,606.5C 223.501,601.177 223.334,595.844 223.5,590.5C 141.605,583.323 79.1046,544.99 36,475.5C 15.6814,440.713 3.5147,403.38 -0.5,363.5C -0.5,356.167 -0.5,348.833 -0.5,341.5C 0.971672,339.866 2.63834,338.366 4.5,337C 27.5,336.333 50.5,336.333 73.5,337C 75.3333,338.167 76.8333,339.667 78,341.5C 79.6102,397.212 101.444,443.045 143.5,479C 166.934,497.544 193.6,508.044 223.5,510.5C 223.334,505.821 223.501,501.155 224,496.5C 226.969,492.888 230.802,491.721 235.5,493C 256.297,510.795 276.797,528.962 297,547.5C 298.443,552.212 297.277,556.045 293.5,559C 273.762,575.851 254.095,592.685 234.5,609.5 Z"/></g>
</svg>
